jumper10dof24musc_withArms.osim_states
version=1
nRows=4
nColumns=101
inDegrees=yes

# SIMM Motion File Header:
name jumper10dof24musc_withArms.osim_states
datacolumns 101
datarows 4
otherdata 1
range 0.00000000 0.00000001
endheader
time	pelvis_tilt	pelvis_tx	pelvis_ty	hip_flexion_r	knee_angle_r	ankle_angle_r	hip_flexion_l	knee_angle_l	ankle_angle_l	lumbar_extension	lumbar_bending	lumbar_rotation	arm_flex_r	arm_add_r	arm_rot_r	elbow_flex_r	pro_sup_r	wrist_flex_r	wrist_dev_r	arm_flex_l	arm_add_l	arm_rot_l	elbow_flex_l	pro_sup_l	wrist_flex_l	wrist_dev_l	pelvis_tilt_u	pelvis_tx_u	pelvis_ty_u	hip_flexion_r_u	knee_angle_r_u	ankle_angle_r_u	hip_flexion_l_u	knee_angle_l_u	ankle_angle_l_u	lumbar_extension_u	lumbar_bending_u	lumbar_rotation_u	arm_flex_r_u	arm_add_r_u	arm_rot_r_u	elbow_flex_r_u	pro_sup_r_u	wrist_flex_r_u	wrist_dev_r_u	arm_flex_l_u	arm_add_l_u	arm_rot_l_u	elbow_flex_l_u	pro_sup_l_u	wrist_flex_l_u	wrist_dev_l_u	hamstrings_r.activation	hamstrings_r.fiber_length	bifemsh_r.activation	bifemsh_r.fiber_length	glut_max_r.activation	glut_max_r.fiber_length	iliopsoas_r.activation	iliopsoas_r.fiber_length	rect_fem_r.activation	rect_fem_r.fiber_length	vasti_r.activation	vasti_r.fiber_length	gastroc_r.activation	gastroc_r.fiber_length	soleus_r.activation	soleus_r.fiber_length	tib_ant_r.activation	tib_ant_r.fiber_length	ercspn_r.activation	ercspn_r.fiber_length	intobl_r.activation	intobl_r.fiber_length	extobl_r.activation	extobl_r.fiber_length	hamstrings_l.activation	hamstrings_l.fiber_length	bifemsh_l.activation	bifemsh_l.fiber_length	glut_max_l.activation	glut_max_l.fiber_length	iliopsoas_l.activation	iliopsoas_l.fiber_length	rect_fem_l.activation	rect_fem_l.fiber_length	vasti_l.activation	vasti_l.fiber_length	gastroc_l.activation	gastroc_l.fiber_length	soleus_l.activation	soleus_l.fiber_length	tib_ant_l.activation	tib_ant_l.fiber_length	ercspn_l.activation	ercspn_l.fiber_length	intobl_l.activation	intobl_l.fiber_length	extobl_l.activation	extobl_l.fiber_length
      0.00000000	    -24.93481121	     -0.00092501	      0.70916475	     75.99999991	    -80.00006706	     31.49999998	     76.00000049	    -80.00006437	     31.49999998	    -10.00000028	      0.00000000	      0.00000000	      0.00000000	     -4.00000000	     90.00000000	      0.00000000	      0.00000000	      0.00000000	      0.00000000	      0.00000000	     -4.00000000	     90.00000000	      0.00000000	      0.00000000	      0.00000000	      0.00000000	     -0.00000000	      0.00000000	     -0.00000000	      0.00000000	     -0.00000000	      0.00000000	      0.00000000	     -0.00000000	      0.00000000	      0.00000000	      0.00000000	      0.00000000	      0.00000000	      0.00000000	      0.00000000	      0.00000000	      0.00000000	      0.00000000	      0.00000000	      0.00000000	      0.00000000	      0.00000000	      0.00000000	      0.00000000	      0.00000000	      0.00000000	      0.00000000	      0.00000000	      0.11187814	      0.13197468	      0.00000000	      0.00000000	      0.00000000	      0.00000000	      1.00000000	      0.08555704	      0.00000000	      0.00000000	      0.00000000	      0.00000000	      0.03612258	      0.09569812	      0.10258295	      0.05284820	      0.29905538	      0.12664581	      0.02000000	      0.08961433	      0.02000000	      0.12161901	      0.00000000	      0.00000000	      0.10233967	      0.13201132	      0.00000000	      0.00000000	      0.00000000	      0.00000000	      1.00000000	      0.08529659	      0.00000000	      0.00000000	      0.00000000	      0.00000000	      0.03694766	      0.09568778	      0.09072816	      0.05297461	      0.29845037	      0.12664617	      0.02000000	      0.08961433	      0.02000000	      0.12161901
      0.00000001	    -24.93481121	     -0.00092501	      0.70916475	     75.99999991	    -80.00006706	     31.49999998	     76.00000049	    -80.00006437	     31.49999998	    -10.00000028	      0.00000000	      0.00000000	      0.00000000	     -4.00000000	     90.00000000	     -0.00000000	      0.00000000	      0.00000000	      0.00000000	      0.00000000	     -4.00000000	     90.00000000	     -0.00000000	     -0.00000000	      0.00000000	     -0.00000000	      0.01037435	      0.00000465	      0.00002443	     -0.01440488	      0.00821864	     -0.01815330	     -0.01440416	      0.00821897	     -0.01817871	     -0.01292514	      0.00000000	      0.00000000	      0.00326311	     -0.00000000	      0.00000000	     -0.00000000	     -0.00000000	      0.00000000	     -0.00000000	      0.00326311	      0.00000000	      0.00000000	     -0.00000000	     -0.00000000	      0.00000000	     -0.00000000	      0.00000000	      0.00019257	      0.11187822	      0.13197468	      0.00000000	      0.00071140	      0.00000000	      0.00070002	      0.99999987	      0.08555704	      0.00000000	      0.00417475	      0.00000000	      0.00033033	      0.03612276	      0.09569441	      0.10258295	      0.05284820	      0.29905574	      0.12664581	      0.02000009	      0.08961433	      0.02000007	      0.12161901	      0.00000000	      0.00019257	      0.10233977	      0.13201132	      0.00000000	      0.00071140	      0.00000000	      0.00070002	      0.99999987	      0.08529659	      0.00000000	      0.00417475	      0.00000000	      0.00033033	      0.03694784	      0.09568415	      0.09072816	      0.05297461	      0.29845073	      0.12664616	      0.02000009	      0.08961433	      0.02000007	      0.12161901
      0.00000001	    -24.93481121	     -0.00092501	      0.70916475	     75.99999991	    -80.00006706	     31.49999998	     76.00000049	    -80.00006437	     31.49999998	    -10.00000028	      0.00000000	      0.00000000	      0.00000000	     -4.00000000	     90.00000000	     -0.00000000	      0.00000000	      0.00000000	     -0.00000000	      0.00000000	     -4.00000000	     90.00000000	     -0.00000000	     -0.00000000	      0.00000000	     -0.00000000	      0.01485849	      0.00000665	      0.00003499	     -0.02063060	      0.01177165	     -0.02603822	     -0.02062958	      0.01177213	     -0.02607465	     -0.01851217	      0.00000000	      0.00000000	      0.00467400	     -0.00000000	      0.00000000	     -0.00000000	      0.00000000	      0.00000000	     -0.00000000	      0.00467400	      0.00000000	      0.00000000	     -0.00000000	     -0.00000000	      0.00000000	     -0.00000000	      0.00000000	      0.00027558	      0.11187826	      0.13197468	      0.00000000	      0.00101463	      0.00000000	      0.00100366	      0.99999981	      0.08555704	      0.00000000	      0.00576707	      0.00000000	      0.00047362	      0.03612284	      0.09569280	      0.10258295	      0.05284820	      0.29905589	      0.12664581	      0.02000012	      0.08961433	      0.02000010	      0.12161901	      0.00000000	      0.00027558	      0.10233981	      0.13201132	      0.00000000	      0.00101463	      0.00000000	      0.00100366	      0.99999981	      0.08529659	      0.00000000	      0.00576707	      0.00000000	      0.00047362	      0.03694792	      0.09568258	      0.09072816	      0.05297461	      0.29845088	      0.12664616	      0.02000012	      0.08961433	      0.02000010	      0.12161901
      0.00000001	    -24.93481121	     -0.00092501	      0.70916475	     75.99999991	    -80.00006706	     31.49999998	     76.00000049	    -80.00006437	     31.49999998	    -10.00000028	      0.00000000	      0.00000000	      0.00000000	     -4.00000000	     90.00000000	     -0.00000000	      0.00000000	      0.00000000	     -0.00000000	      0.00000000	     -4.00000000	     90.00000000	     -0.00000000	     -0.00000000	      0.00000000	     -0.00000000	      0.01933542	      0.00000866	      0.00004550	     -0.02682867	      0.01526563	     -0.03395266	     -0.02682733	      0.01526626	     -0.03400012	     -0.02408759	      0.00000000	      0.00000000	      0.00607906	     -0.00000000	      0.00000000	     -0.00000000	      0.00000000	      0.00000000	     -0.00000000	      0.00607906	      0.00000000	      0.00000000	     -0.00000000	     -0.00000000	      0.00000000	     -0.00000000	      0.00000000	      0.00035829	      0.11187829	      0.13197468	      0.00000000	      0.00131472	      0.00000000	      0.00130730	      0.99999975	      0.08555704	      0.00000000	      0.00626404	      0.00000000	      0.00061690	      0.03612292	      0.09569119	      0.10258295	      0.05284820	      0.29905605	      0.12664581	      0.02000016	      0.08961433	      0.02000013	      0.12161901	      0.00000000	      0.00035829	      0.10233985	      0.13201132	      0.00000000	      0.00131472	      0.00000000	      0.00130730	      0.99999975	      0.08529659	      0.00000000	      0.00626404	      0.00000000	      0.00061690	      0.03694800	      0.09568101	      0.09072815	      0.05297461	      0.29845103	      0.12664616	      0.02000016	      0.08961433	      0.02000013	      0.12161901
